<svg width="192" height="65" viewBox="0 0 192 65" fill="none" xmlns="http://www.w3.org/2000/svg">
<g filter="url(#filter0_d_3:6)">
<path d="M54.1416 49.096C53.5016 49.096 52.9416 48.952 52.4616 48.664C52.0136 48.376 51.7896 47.976 51.7896 47.464C52.4936 46.76 52.8456 44.888 52.8456 41.848C52.8456 40.024 52.7016 37.368 52.4136 33.88C52.0936 30.552 51.9336 27.928 51.9336 26.008L52.0296 23.368C52.0616 22.6 52.0776 21.72 52.0776 20.728C52.0776 19.832 51.9176 18.696 51.5976 17.32C51.2136 15.88 51.0216 14.872 51.0216 14.296C51.0216 13.176 52.2536 12.616 54.7176 12.616H55.4376C57.1656 12.616 58.6696 13.144 59.9496 14.2C60.9736 15.096 61.8376 16.392 62.5416 18.088C63.0216 19.24 63.4376 20.84 63.7896 22.888C63.9816 24.68 64.0776 26.088 64.0776 27.112V28.648V30.904C64.0136 31.032 63.9816 31.16 63.9816 31.288C63.9816 31.544 63.9976 31.736 64.0296 31.864C64.0616 31.992 64.0776 32.152 64.0776 32.344C64.0776 33.368 63.9176 34.6 63.5976 36.04C63.3096 37.448 62.8776 38.888 62.3016 40.36C60.8616 43.88 59.2456 46.376 57.4536 47.848C56.3976 48.68 55.2936 49.096 54.1416 49.096ZM55.1496 46.312C56.3336 45.576 57.3736 44.52 58.2696 43.144C59.1656 41.736 59.8536 40.184 60.3336 38.488C61.1976 35.352 61.6296 32.184 61.6296 28.984C61.6296 27.256 61.4696 25.368 61.1496 23.32C60.7976 21.336 60.0456 19.544 58.8936 17.944C58.3496 17.176 57.6616 16.584 56.8296 16.168C55.9976 15.72 55.0536 15.496 53.9976 15.496V15.544C53.9976 18.424 54.1896 22.776 54.5736 28.6C54.9576 34.392 55.1496 38.776 55.1496 41.752V46.312ZM75.0651 49.72C74.2971 49.72 73.6091 49.544 73.0011 49.192C72.3931 48.872 71.8971 48.392 71.5131 47.752C70.7451 46.408 70.2491 44.888 70.0251 43.192C69.8011 41.72 69.6891 39.96 69.6891 37.912C69.5931 34.456 69.5451 30.232 69.5451 25.24L69.4971 21.544C69.4651 21.352 69.4491 21.032 69.4491 20.584C69.3851 19.368 69.3531 18.632 69.3531 18.376C69.6411 17.704 69.9771 17.368 70.3611 17.368C70.7451 17.368 71.0811 17.656 71.3691 18.232C71.6891 18.808 71.8491 19.432 71.8491 20.104V33.16C71.8491 34.44 71.9611 36.136 72.1851 38.248C72.4091 40.872 72.5211 42.568 72.5211 43.336C72.5211 45.704 73.5291 46.888 75.5451 46.888C77.8491 46.888 79.0011 38.28 79.0011 21.064V18.376V17.944C78.9691 17.848 78.9531 17.72 78.9531 17.56C78.9531 17.176 79.0331 16.904 79.1931 16.744C79.3851 16.552 79.7371 16.456 80.2491 16.456C80.6651 16.456 80.9851 16.584 81.2091 16.84C81.4651 17.064 81.6251 17.336 81.6891 17.656C81.7211 17.848 81.7371 18.216 81.7371 18.76C81.7371 19.272 81.6891 20.088 81.5931 21.208C81.4651 22.136 81.4011 22.936 81.4011 23.608C81.4011 24.344 81.3691 25 81.3051 25.576L81.2091 27.592V27.976C81.2411 28.104 81.2571 28.248 81.2571 28.408C81.2571 42.616 79.1931 49.72 75.0651 49.72ZM88.8088 49.288C87.9768 49.288 87.5608 47.192 87.5608 43L87.6568 35.416C87.6888 33.176 87.7048 30.664 87.7048 27.88C87.7048 26.856 87.6088 25.272 87.4168 23.128C87.2568 20.792 87.1768 19.368 87.1768 18.856C87.1768 18.44 87.3528 18.072 87.7048 17.752C88.0568 17.432 88.4408 17.272 88.8568 17.272C89.9768 17.272 91.0488 17.528 92.0728 18.04C93.1288 18.52 94.0568 19.208 94.8568 20.104C96.5528 22.056 97.6728 24.2 98.2168 26.536C98.5048 27.72 98.6488 28.888 98.6488 30.04C98.6488 30.456 98.6328 30.84 98.6008 31.192L98.5528 32.488V35.128C98.5528 37.176 98.4888 38.792 98.3608 39.976C98.1688 41.576 97.8008 43 97.2568 44.248C96.6168 45.592 95.6888 46.792 94.4728 47.848C93.8968 48.328 93.1608 48.808 92.2648 49.288H88.8088ZM90.9208 46.84C91.5608 46.84 92.1528 46.68 92.6968 46.36C93.2408 46.008 93.7048 45.544 94.0888 44.968C94.4088 44.456 94.6968 43.816 94.9528 43.048C95.2408 42.248 95.4488 41.48 95.5768 40.744C95.8648 39.304 96.0408 37.832 96.1048 36.328C96.1368 35.944 96.1528 35.384 96.1528 34.648C96.1528 24.984 94.2808 19.944 90.5368 19.528C90.3128 20.968 90.2008 22.632 90.2008 24.52C90.2008 26.536 90.3288 30.056 90.5848 35.08C90.8088 39.528 90.9208 43.064 90.9208 45.688V46.84ZM109.483 49.912C108.651 49.912 107.883 49.64 107.179 49.096C106.475 48.584 105.899 47.88 105.451 46.984C104.523 45.032 103.947 42.904 103.723 40.6C103.435 38.424 103.291 36.328 103.291 34.312C103.291 33.928 103.307 33.608 103.339 33.352V32.488C103.339 32.328 103.323 32.248 103.291 32.248V31.384L103.339 28.024C103.371 27 103.499 25.368 103.723 23.128C103.883 21.592 104.251 20.104 104.827 18.664C105.051 18.024 105.339 17.544 105.691 17.224C106.043 16.872 106.443 16.696 106.891 16.696C108.171 16.696 109.323 16.936 110.347 17.416C111.371 17.864 112.235 18.504 112.939 19.336C113.579 20.136 114.123 21.128 114.571 22.312C115.019 23.464 115.339 24.696 115.531 26.008C115.723 27.352 115.819 28.776 115.819 30.28V30.664C115.819 31.656 115.835 32.552 115.867 33.352L115.915 36.088C115.915 45.304 113.771 49.912 109.483 49.912ZM109.291 47.896C109.867 47.896 110.395 47.672 110.875 47.224C111.355 46.744 111.723 46.104 111.979 45.304C112.587 43.672 112.955 41.912 113.083 40.024C113.243 38.392 113.323 36.984 113.323 35.8C113.323 34.36 113.211 32.472 112.987 30.136C112.795 27.672 112.699 25.832 112.699 24.616V23.752C112.635 22.536 112.219 21.48 111.451 20.584C110.715 19.688 109.803 19.24 108.715 19.24C107.627 19.24 106.907 19.864 106.555 21.112C106.235 22.104 106.075 23.384 106.075 24.952C106.075 25.56 106.091 26.072 106.123 26.488V27.784L106.027 29.992C105.963 30.664 105.931 31.4 105.931 32.2C105.931 33.928 105.979 35.64 106.075 37.336C106.203 39.736 106.523 42.072 107.035 44.344C107.547 46.712 108.299 47.896 109.291 47.896ZM130.619 49C130.107 49 129.723 48.904 129.467 48.712C129.243 48.52 129.131 48.2 129.131 47.752V41.464C128.715 41.176 127.931 40.92 126.779 40.696C125.627 40.472 124.539 40.328 123.515 40.264C123.163 40.936 122.907 41.752 122.747 42.712L122.555 43.672C122.523 43.896 122.427 44.392 122.267 45.16C122.107 45.928 121.931 46.6 121.739 47.176C121.547 47.72 121.355 48.152 121.163 48.472C119.947 48.472 119.243 48.152 119.051 47.512C119.403 47 119.803 45.496 120.251 43L121.835 34.216C122.539 30.056 123.179 26.504 123.755 23.56C124.363 20.616 125.003 18.152 125.675 16.168C126.411 13.96 127.115 12.856 127.787 12.856C128.459 12.856 128.971 12.984 129.323 13.24C129.323 14.52 129.627 17.608 130.235 22.504C130.875 27.304 131.195 30.584 131.195 32.344C131.195 34.04 131.371 36.472 131.723 39.64C132.043 42.872 132.203 45.448 132.203 47.368C132.203 48.456 131.675 49 130.619 49ZM128.123 38.68C128.379 38.68 128.699 38.632 129.083 38.536C128.987 37.128 128.827 35.384 128.603 33.304C127.867 26.072 127.499 21.64 127.499 20.008V19.624C127.179 19.944 126.731 21.4 126.155 23.992C125.611 26.552 125.099 29.304 124.619 32.248C124.139 35.192 123.883 37.144 123.851 38.104C125.195 38.488 126.619 38.68 128.123 38.68ZM139.001 49.336C138.585 47.64 138.377 45.288 138.377 42.28L138.473 38.008C138.537 36.728 138.569 35.304 138.569 33.736C138.377 33.288 138.281 32.888 138.281 32.536V32.392C138.601 31.784 138.761 30.408 138.761 28.264L138.809 26.056C138.841 25.352 138.857 24.568 138.857 23.704C138.857 21.816 138.729 20.328 138.473 19.24C138.569 18.792 138.729 18.408 138.953 18.088C139.177 17.736 139.449 17.56 139.769 17.56H141.881C142.777 17.56 143.561 17.768 144.233 18.184C144.905 18.568 145.417 19.128 145.769 19.864C146.409 21.176 146.729 22.728 146.729 24.52C146.729 25.8 146.713 26.808 146.681 27.544C146.617 28.472 146.457 29.32 146.201 30.088C146.105 30.504 145.961 30.856 145.769 31.144C145.609 31.4 145.369 31.72 145.049 32.104C144.601 32.648 143.865 33.16 142.841 33.64C142.425 33.864 141.881 34.072 141.209 34.264V39.4L141.305 42.472L141.401 43.96C141.529 45.752 141.593 47.272 141.593 48.52C141.593 48.904 141.433 49.224 141.113 49.48C140.793 49.768 140.425 49.912 140.009 49.912L139.001 49.336ZM141.257 32.296C143.145 32.008 144.089 29.304 144.089 24.184C144.089 23.256 144.041 22.536 143.945 22.024C143.849 21.64 143.721 21.336 143.561 21.112C143.401 20.856 143.161 20.648 142.841 20.488C142.489 20.296 142.105 20.2 141.689 20.2C141.689 20.168 141.513 20.152 141.161 20.152V22.888C141.161 24.776 141.177 26.456 141.209 27.928C141.209 29.592 141.225 30.68 141.257 31.192V32.2V32.296ZM152.501 49.336C152.085 47.64 151.877 45.288 151.877 42.28L151.973 38.008C152.037 36.728 152.069 35.304 152.069 33.736C151.877 33.288 151.781 32.888 151.781 32.536V32.392C152.101 31.784 152.261 30.408 152.261 28.264L152.309 26.056C152.341 25.352 152.357 24.568 152.357 23.704C152.357 21.816 152.229 20.328 151.973 19.24C152.069 18.792 152.229 18.408 152.453 18.088C152.677 17.736 152.949 17.56 153.269 17.56H155.381C156.277 17.56 157.061 17.768 157.733 18.184C158.405 18.568 158.917 19.128 159.269 19.864C159.909 21.176 160.229 22.728 160.229 24.52C160.229 25.8 160.213 26.808 160.181 27.544C160.117 28.472 159.957 29.32 159.701 30.088C159.605 30.504 159.461 30.856 159.269 31.144C159.109 31.4 158.869 31.72 158.549 32.104C158.101 32.648 157.365 33.16 156.341 33.64C155.925 33.864 155.381 34.072 154.709 34.264V39.4L154.805 42.472L154.901 43.96C155.029 45.752 155.093 47.272 155.093 48.52C155.093 48.904 154.933 49.224 154.613 49.48C154.293 49.768 153.925 49.912 153.509 49.912L152.501 49.336ZM154.757 32.296C156.645 32.008 157.589 29.304 157.589 24.184C157.589 23.256 157.541 22.536 157.445 22.024C157.349 21.64 157.221 21.336 157.061 21.112C156.901 20.856 156.661 20.648 156.341 20.488C155.989 20.296 155.605 20.2 155.189 20.2C155.189 20.168 155.013 20.152 154.661 20.152V22.888C154.661 24.776 154.677 26.456 154.709 27.928C154.709 29.592 154.725 30.68 154.757 31.192V32.2V32.296Z" fill="black"/>
</g>
<g clip-path="url(#clip0_3:6)">
<path d="M45.1525 22H36.0961C37.064 24.0805 36.6392 26.5844 34.7995 28.2803L24.4068 37.8611V41.125C24.4068 42.989 26.0458 44.5 28.0678 44.5H45.1525C47.1745 44.5 48.8136 42.989 48.8136 41.125V25.375C48.8136 23.511 47.1745 22 45.1525 22ZM36.6102 34.9375C35.5996 34.9375 34.7797 34.1816 34.7797 33.25C34.7797 32.3177 35.5996 31.5625 36.6102 31.5625C37.6208 31.5625 38.4407 32.3177 38.4407 33.25C38.4407 34.1816 37.6208 34.9375 36.6102 34.9375ZM33.0735 21.8102L19.7314 9.51039C18.27 8.1632 15.9003 8.1632 14.4389 9.51039L1.09602 21.8102C-0.365339 23.1573 -0.365339 25.342 1.09602 26.6891L14.4381 38.9896C15.8995 40.3368 18.2692 40.3368 19.7306 38.9896L33.0735 26.6898C34.5348 25.342 34.5348 23.1573 33.0735 21.8102ZM7.32203 25.9375C6.31144 25.9375 5.49153 25.1816 5.49153 24.25C5.49153 23.3177 6.31144 22.5625 7.32203 22.5625C8.33263 22.5625 9.15254 23.3177 9.15254 24.25C9.15254 25.1816 8.33263 25.9375 7.32203 25.9375ZM17.0847 34.9375C16.0742 34.9375 15.2542 34.1816 15.2542 33.25C15.2542 32.3177 16.0742 31.5625 17.0847 31.5625C18.0953 31.5625 18.9153 32.3177 18.9153 33.25C18.9153 34.1816 18.0953 34.9375 17.0847 34.9375ZM17.0847 25.9375C16.0742 25.9375 15.2542 25.1816 15.2542 24.25C15.2542 23.3177 16.0742 22.5625 17.0847 22.5625C18.0953 22.5625 18.9153 23.3177 18.9153 24.25C18.9153 25.1816 18.0953 25.9375 17.0847 25.9375ZM17.0847 16.9375C16.0742 16.9375 15.2542 16.1816 15.2542 15.25C15.2542 14.3177 16.0742 13.5625 17.0847 13.5625C18.0953 13.5625 18.9153 14.3177 18.9153 15.25C18.9153 16.1816 18.0953 16.9375 17.0847 16.9375ZM26.8475 25.9375C25.8369 25.9375 25.017 25.1816 25.017 24.25C25.017 23.3177 25.8369 22.5625 26.8475 22.5625C27.8581 22.5625 28.678 23.3177 28.678 24.25C28.678 25.1816 27.8581 25.9375 26.8475 25.9375Z" fill="black"/>
</g>
<defs>
<filter id="filter0_d_3:6" x="47.0216" y="12.616" width="117.207" height="45.296" filterUnits="userSpaceOnUse" color-interpolation-filters="sRGB">
<feFlood flood-opacity="0" result="BackgroundImageFix"/>
<feColorMatrix in="SourceAlpha" type="matrix" values="0 0 0 0 0 0 0 0 0 0 0 0 0 0 0 0 0 0 127 0" result="hardAlpha"/>
<feOffset dy="4"/>
<feGaussianBlur stdDeviation="2"/>
<feComposite in2="hardAlpha" operator="out"/>
<feColorMatrix type="matrix" values="0 0 0 0 0 0 0 0 0 0 0 0 0 0 0 0 0 0 0.25 0"/>
<feBlend mode="normal" in2="BackgroundImageFix" result="effect1_dropShadow_3:6"/>
<feBlend mode="normal" in="SourceGraphic" in2="effect1_dropShadow_3:6" result="shape"/>
</filter>
<clipPath id="clip0_3:6">
<rect width="48.8136" height="45" fill="white" transform="translate(0 4)"/>
</clipPath>
</defs>
</svg>
